<mxfile host="www.draw.io" modified="2020-05-28T03:34:28.790Z" agent="5.0 (Windows NT 10.0; WOW64) AppleWebKit/537.36 (KHTML, like Gecko) Chrome/74.0.3729.131 Safari/537.36" etag="GDlxVnPrOOGHmUwh5joE" version="13.1.3" type="github">
  <diagram id="bmiANk7Wq_v8kcRveSlA" name="Page-1">
    <mxGraphModel dx="1360" dy="753" grid="1" gridSize="10" guides="1" tooltips="1" connect="1" arrows="1" fold="1" page="1" pageScale="1" pageWidth="1920" pageHeight="1200" math="0" shadow="0">
      <root>
        <mxCell id="0" />
        <mxCell id="1" parent="0" />
        <mxCell id="1f35J_IX4GEQWVw_s67f-8" style="edgeStyle=orthogonalEdgeStyle;rounded=0;orthogonalLoop=1;jettySize=auto;html=1;exitX=1;exitY=0.5;exitDx=0;exitDy=0;entryX=0;entryY=0.5;entryDx=0;entryDy=0;" edge="1" parent="1" source="1f35J_IX4GEQWVw_s67f-1" target="1f35J_IX4GEQWVw_s67f-4">
          <mxGeometry relative="1" as="geometry" />
        </mxCell>
        <mxCell id="1f35J_IX4GEQWVw_s67f-1" value="Jenkins&amp;nbsp;流水线运行" style="rounded=1;whiteSpace=wrap;html=1;" vertex="1" parent="1">
          <mxGeometry x="190" y="260" width="120" height="60" as="geometry" />
        </mxCell>
        <mxCell id="1f35J_IX4GEQWVw_s67f-10" style="edgeStyle=orthogonalEdgeStyle;rounded=0;orthogonalLoop=1;jettySize=auto;html=1;exitX=1;exitY=0.5;exitDx=0;exitDy=0;entryX=0;entryY=0.5;entryDx=0;entryDy=0;" edge="1" parent="1" source="1f35J_IX4GEQWVw_s67f-3" target="1f35J_IX4GEQWVw_s67f-5">
          <mxGeometry relative="1" as="geometry" />
        </mxCell>
        <mxCell id="1f35J_IX4GEQWVw_s67f-3" value="两个待比较文件夹" style="rounded=1;whiteSpace=wrap;html=1;" vertex="1" parent="1">
          <mxGeometry x="520" y="260" width="120" height="60" as="geometry" />
        </mxCell>
        <mxCell id="1f35J_IX4GEQWVw_s67f-9" style="edgeStyle=orthogonalEdgeStyle;rounded=0;orthogonalLoop=1;jettySize=auto;html=1;exitX=1;exitY=0.5;exitDx=0;exitDy=0;entryX=0;entryY=0.5;entryDx=0;entryDy=0;" edge="1" parent="1" source="1f35J_IX4GEQWVw_s67f-4" target="1f35J_IX4GEQWVw_s67f-3">
          <mxGeometry relative="1" as="geometry" />
        </mxCell>
        <mxCell id="1f35J_IX4GEQWVw_s67f-4" value="解压后" style="rounded=1;whiteSpace=wrap;html=1;" vertex="1" parent="1">
          <mxGeometry x="350" y="260" width="120" height="60" as="geometry" />
        </mxCell>
        <mxCell id="1f35J_IX4GEQWVw_s67f-11" style="edgeStyle=orthogonalEdgeStyle;rounded=0;orthogonalLoop=1;jettySize=auto;html=1;exitX=1;exitY=0.5;exitDx=0;exitDy=0;entryX=0;entryY=0.5;entryDx=0;entryDy=0;" edge="1" parent="1" source="1f35J_IX4GEQWVw_s67f-5" target="1f35J_IX4GEQWVw_s67f-6">
          <mxGeometry relative="1" as="geometry" />
        </mxCell>
        <mxCell id="1f35J_IX4GEQWVw_s67f-5" value="UC&amp;nbsp;命令行设置&amp;nbsp;比较方式&amp;nbsp; 完全" style="rounded=1;whiteSpace=wrap;html=1;" vertex="1" parent="1">
          <mxGeometry x="680" y="260" width="120" height="60" as="geometry" />
        </mxCell>
        <mxCell id="1f35J_IX4GEQWVw_s67f-12" style="edgeStyle=orthogonalEdgeStyle;rounded=0;orthogonalLoop=1;jettySize=auto;html=1;exitX=1;exitY=0.5;exitDx=0;exitDy=0;entryX=0;entryY=0.5;entryDx=0;entryDy=0;" edge="1" parent="1" source="1f35J_IX4GEQWVw_s67f-6" target="1f35J_IX4GEQWVw_s67f-7">
          <mxGeometry relative="1" as="geometry">
            <Array as="points">
              <mxPoint x="980" y="290" />
              <mxPoint x="980" y="360" />
              <mxPoint x="410" y="360" />
              <mxPoint x="410" y="490" />
            </Array>
          </mxGeometry>
        </mxCell>
        <mxCell id="1f35J_IX4GEQWVw_s67f-6" value="相等文件与相等文件夹" style="rounded=1;whiteSpace=wrap;html=1;" vertex="1" parent="1">
          <mxGeometry x="840" y="260" width="120" height="60" as="geometry" />
        </mxCell>
        <mxCell id="1f35J_IX4GEQWVw_s67f-18" style="edgeStyle=orthogonalEdgeStyle;rounded=0;orthogonalLoop=1;jettySize=auto;html=1;exitX=1;exitY=0.5;exitDx=0;exitDy=0;entryX=0;entryY=0.5;entryDx=0;entryDy=0;" edge="1" parent="1" source="1f35J_IX4GEQWVw_s67f-7" target="1f35J_IX4GEQWVw_s67f-13">
          <mxGeometry relative="1" as="geometry" />
        </mxCell>
        <mxCell id="1f35J_IX4GEQWVw_s67f-19" style="edgeStyle=orthogonalEdgeStyle;rounded=0;orthogonalLoop=1;jettySize=auto;html=1;exitX=1;exitY=0.5;exitDx=0;exitDy=0;entryX=0;entryY=0.5;entryDx=0;entryDy=0;" edge="1" parent="1" source="1f35J_IX4GEQWVw_s67f-7" target="1f35J_IX4GEQWVw_s67f-14">
          <mxGeometry relative="1" as="geometry" />
        </mxCell>
        <mxCell id="1f35J_IX4GEQWVw_s67f-20" style="edgeStyle=orthogonalEdgeStyle;rounded=0;orthogonalLoop=1;jettySize=auto;html=1;exitX=1;exitY=0.5;exitDx=0;exitDy=0;entryX=0;entryY=0.5;entryDx=0;entryDy=0;" edge="1" parent="1" source="1f35J_IX4GEQWVw_s67f-7" target="1f35J_IX4GEQWVw_s67f-16">
          <mxGeometry relative="1" as="geometry" />
        </mxCell>
        <mxCell id="1f35J_IX4GEQWVw_s67f-7" value="结果输出" style="rounded=1;whiteSpace=wrap;html=1;" vertex="1" parent="1">
          <mxGeometry x="430" y="460" width="120" height="60" as="geometry" />
        </mxCell>
        <mxCell id="1f35J_IX4GEQWVw_s67f-13" value="过滤掉配置文件信息" style="rounded=1;whiteSpace=wrap;html=1;" vertex="1" parent="1">
          <mxGeometry x="600" y="370" width="120" height="60" as="geometry" />
        </mxCell>
        <mxCell id="1f35J_IX4GEQWVw_s67f-21" style="edgeStyle=orthogonalEdgeStyle;rounded=0;orthogonalLoop=1;jettySize=auto;html=1;exitX=1;exitY=0.5;exitDx=0;exitDy=0;entryX=0;entryY=0.5;entryDx=0;entryDy=0;" edge="1" parent="1" source="1f35J_IX4GEQWVw_s67f-14" target="1f35J_IX4GEQWVw_s67f-15">
          <mxGeometry relative="1" as="geometry" />
        </mxCell>
        <mxCell id="1f35J_IX4GEQWVw_s67f-14" value="WEB-INF中改动的class" style="rounded=1;whiteSpace=wrap;html=1;" vertex="1" parent="1">
          <mxGeometry x="600" y="460" width="120" height="60" as="geometry" />
        </mxCell>
        <mxCell id="1f35J_IX4GEQWVw_s67f-15" value="取完整文件夹路径加改动class" style="rounded=1;whiteSpace=wrap;html=1;" vertex="1" parent="1">
          <mxGeometry x="760" y="460" width="120" height="60" as="geometry" />
        </mxCell>
        <mxCell id="1f35J_IX4GEQWVw_s67f-22" style="edgeStyle=orthogonalEdgeStyle;rounded=0;orthogonalLoop=1;jettySize=auto;html=1;exitX=1;exitY=0.5;exitDx=0;exitDy=0;" edge="1" parent="1" source="1f35J_IX4GEQWVw_s67f-16" target="1f35J_IX4GEQWVw_s67f-17">
          <mxGeometry relative="1" as="geometry" />
        </mxCell>
        <mxCell id="1f35J_IX4GEQWVw_s67f-16" value="有改动的jar&amp;nbsp;包" style="rounded=1;whiteSpace=wrap;html=1;" vertex="1" parent="1">
          <mxGeometry x="600" y="550" width="120" height="60" as="geometry" />
        </mxCell>
        <mxCell id="1f35J_IX4GEQWVw_s67f-17" value="取jar包路径加jar包" style="rounded=1;whiteSpace=wrap;html=1;" vertex="1" parent="1">
          <mxGeometry x="760" y="550" width="120" height="60" as="geometry" />
        </mxCell>
      </root>
    </mxGraphModel>
  </diagram>
</mxfile>
